# Blender v2.81 (sub 16) OBJ File: ''
# www.blender.org
mtllib blueShell.mtl
o _0_0_node__0_0
v -1.082070 0.671079 -3.702410
v -3.486380 -0.131917 -2.957100
v -2.806020 0.133084 -2.455590
v -1.319720 0.431510 -4.389240
v -2.949520 -1.068740 -2.937700
v -3.535020 -0.132633 -0.000000
v -4.362870 -0.528969 -0.000000
v -3.886630 -1.272370 -0.000000
v -2.283030 2.534320 0.000895
v -1.357750 2.524791 -2.482440
v -2.806020 0.133084 -2.455590
v -3.535020 -0.132633 -0.000000
v -2.708890 0.109449 2.593290
v -1.228960 2.460840 2.520610
v 1.005470 0.677761 3.619200
v 1.228960 2.460840 2.520610
v -1.005460 0.677761 3.619200
v -3.351320 -0.067061 3.105960
v -2.708890 0.109449 2.593290
v -2.868150 -0.961932 2.913030
v -1.082070 0.671079 -3.702410
v 4.362870 -0.528969 -0.000000
v 3.486390 -0.131917 -2.957100
v 3.535020 -0.132633 -0.000000
v 2.806030 0.133084 -2.455590
v 2.949530 -1.068740 -2.937700
v 3.886640 -1.272370 -0.000000
v 2.283040 2.534320 0.000895
v 2.806030 0.133084 -2.455590
v 1.357750 2.524791 -2.482440
v 3.535020 -0.132633 -0.000000
v 2.708890 0.109449 2.593290
v 1.276350 0.501462 4.316440
v 3.351330 -0.067061 3.105960
v 2.868150 -0.961932 2.913030
v 2.708890 0.109449 2.593290
v 0.000003 -0.435579 -4.219870
v 0.000003 -0.415827 4.153540
v -3.027600 -0.976040 -1.500370
v -1.149070 0.056736 -3.806540
v -1.957510 -2.688080 -2.016980
v -2.272580 -3.047380 -0.000000
v 0.000004 -3.559360 -1.665151
v -1.335360 -1.708680 2.943980
v -2.071240 -2.630080 1.761459
v 0.000004 -2.272830 2.943980
v -3.000220 -0.942886 1.210750
v 2.071240 -2.630080 1.761459
v 1.335370 -1.708680 2.943980
v 0.000004 -2.054250 3.539960
v 1.219570 -1.583951 3.449900
v -1.219560 -1.583951 3.449900
v -2.027590 -0.417470 2.806010
v 0.000004 -2.054250 3.539960
v 1.547550 -0.323165 3.559120
v -1.547540 -0.323165 3.559120
v -1.149070 0.056736 -3.806540
v 1.149070 0.056736 -3.806540
v -0.895720 -1.955029 -3.291440
v 0.895724 -1.955029 -3.291440
v -0.895720 -1.955029 -3.291440
v 1.149070 0.056736 -3.806540
v 1.957510 -2.688080 -2.016980
v 0.895724 -1.955029 -3.291440
v 0.000004 -3.581520 1.531349
v 2.272580 -3.047380 -0.000000
v 3.027610 -0.976040 -1.500370
v 3.000230 -0.942886 1.210750
v 2.027590 -0.417470 2.806010
v 1.219570 -1.583951 3.449900
v 1.547550 -0.323165 3.559120
v -1.547540 -0.323165 3.559120
v 0.000004 3.289490 -1.231629
v 0.000004 3.301580 1.173401
v -1.219560 -1.583951 3.449900
v -1.276350 0.501462 4.316440
v -1.005460 0.677761 3.619200
v 1.005470 0.677761 3.619200
v 1.082080 0.671079 -3.702410
v 1.082080 0.671079 -3.702410
v 1.319730 0.431510 -4.389240
v -1.000000 2.923670 0.000000
v 0.000000 5.014040 0.000001
v 0.000000 2.923670 -1.000000
v 0.000000 2.923670 1.000000
v 1.000000 2.923670 0.000000
v 0.000000 2.923670 -1.000000
v -1.019000 1.740680 2.526580
v -0.032712 2.965849 4.228291
v -0.009222 2.545340 1.949640
v -0.028927 0.927754 3.125670
v 0.980856 1.732410 2.548720
v -0.009222 2.545340 1.949640
v -1.019000 1.740680 -2.526580
v -0.009222 2.545340 -1.949640
v -0.032712 2.965851 -4.228290
v -0.028927 0.927756 -3.125670
v 0.980856 1.732410 -2.548720
v -0.009222 2.545340 -1.949640
v 2.600260 1.279820 0.297278
v 1.793630 2.178920 1.032780
v 3.910490 2.194860 1.975260
v 2.593430 0.380719 1.388870
v 1.786790 1.279820 2.124370
v 1.793630 2.178920 1.032780
v -2.600260 1.279820 0.297278
v -3.910490 2.194860 1.975260
v -1.793630 2.178920 1.032780
v -2.593430 0.380719 1.388870
v -1.786790 1.279820 2.124370
v -1.793630 2.178920 1.032780
v 2.600260 1.279820 -0.459092
v 3.910490 2.194860 -2.137080
v 1.793630 2.178920 -1.194590
v 2.593430 0.380719 -1.550680
v 1.786790 1.279820 -2.286180
v 1.793630 2.178920 -1.194590
v -2.600260 1.279820 -0.459092
v -1.793630 2.178920 -1.194590
v -3.910490 2.194860 -2.137080
v -2.593430 0.380719 -1.550680
v -1.786790 1.279820 -2.286180
v -1.793630 2.178920 -1.194590
vt 0.014454 0.055318
vt 0.014454 0.055318
vt 0.014454 0.055318
vt 0.014454 0.055318
vt 0.014454 0.055318
vt 0.014454 0.055318
vt 0.014454 0.055318
vt 0.014454 0.055318
vt 0.014454 0.055318
vt 0.014454 0.055318
vt 0.014454 0.055318
vt 0.014454 0.055318
vt 0.014454 0.055318
vt 0.014454 0.055318
vt 0.014454 0.055318
vt 0.014454 0.055318
vt 0.014454 0.055318
vt 0.014454 0.055318
vt 0.014454 0.055318
vt 0.014454 0.055318
vt 0.014454 0.055318
vt 0.014454 0.055318
vt 0.014454 0.055318
vt 0.014454 0.055318
vt 0.014454 0.055318
vt 0.014454 0.055318
vt 0.014454 0.055318
vt 0.696647 0.962729
vt 0.778615 0.715855
vt 0.583800 0.669961
vt 0.504325 0.967531
vt 0.595951 0.649772
vt 0.803704 0.700042
vt 0.972728 0.857433
vt 0.972728 0.880218
vt 0.832149 0.729856
vt 0.734312 0.964456
vt 0.621712 0.673196
vt 0.530521 0.967531
vt 0.633864 0.649772
vt 0.823316 0.706542
vt 0.821463 0.524065
vt 0.859375 0.524065
vt 0.812825 0.553079
vt 0.850735 0.544236
vt 0.014454 0.055318
vt 0.631697 0.442014
vt 0.908693 0.490096
vt 0.704120 0.284201
vt 0.479209 0.253790
vt 0.665426 0.027801
vt 0.285236 0.023805
vt 0.259977 0.286675
vt 0.353363 0.434307
vt 0.166856 0.497638
vt 0.126072 0.370007
vt 0.137444 0.106010
vt 0.037228 0.360504
vt 0.126072 0.370007
vt 0.259977 0.286675
vt 0.166856 0.497638
vt 0.038356 0.381000
vt 0.038655 0.479684
vt 0.038356 0.381000
vt 0.038655 0.479684
vt 0.244556 0.763902
vt 0.402987 0.939341
vt 0.086126 0.939341
vt 0.373454 0.824975
vt 0.115659 0.824975
vt 0.091823 0.998585
vt 0.385438 0.998585
vt 0.125765 0.760129
vt 0.367121 0.760129
vt 0.860426 0.311461
vt 0.860426 0.311461
vt 0.704120 0.284201
vt 0.908693 0.490096
vt 0.631697 0.442014
vt 0.479209 0.253790
vt 0.353363 0.434307
vt 0.008432 0.204416
vt 0.014437 -0.007871
vt 0.002427 0.204416
vt 0.014437 0.204416
vt 0.020442 0.204416
vt 0.026447 0.204416
vt 0.008432 0.204416
vt 0.014437 -0.007871
vt 0.002427 0.204416
vt 0.014437 0.204416
vt 0.020442 0.204416
vt 0.026447 0.204416
vt 0.008432 0.204416
vt 0.002427 0.204416
vt 0.014437 -0.007871
vt 0.014437 0.204416
vt 0.020442 0.204416
vt 0.026447 0.204416
vt 0.008432 0.204416
vt 0.002427 0.204416
vt 0.014437 -0.007871
vt 0.014437 0.204416
vt 0.020442 0.204416
vt 0.026447 0.204416
vt 0.008432 0.204416
vt 0.014437 -0.007871
vt 0.002427 0.204416
vt 0.014437 0.204416
vt 0.020442 0.204416
vt 0.026447 0.204416
vt 0.008432 0.204416
vt 0.014437 -0.007871
vt 0.002427 0.204416
vt 0.014437 0.204416
vt 0.020442 0.204416
vt 0.026447 0.204416
vt 0.008432 0.204416
vt 0.002427 0.204416
vt 0.014437 -0.007871
vt 0.014437 0.204416
vt 0.020442 0.204416
vt 0.026447 0.204416
vn -0.1765 0.9505 -0.2558
vn -0.8072 0.3259 -0.4920
vn -0.3446 0.9383 -0.0282
vn -0.3228 0.3839 -0.8651
vn 0.1765 0.9505 -0.2558
vn 0.3228 0.3839 -0.8651
vn 0.0000 -0.7297 -0.6837
vn 0.3402 -0.8255 -0.4503
vn 0.3215 -0.8360 0.4447
vn 0.4454 -0.8951 0.0209
vn 0.9811 0.1929 0.0150
vn 0.8072 0.3259 -0.4920
vn 0.4155 0.9096 -0.0008
vn 0.7668 0.3347 0.5477
vn 0.2754 0.9613 0.0062
vn 0.3337 0.4355 0.8361
vn 0.1725 0.9688 0.1779
vn -0.3337 0.4355 0.8361
vn 0.0000 -0.7246 0.6891
vn -0.3215 -0.8360 0.4447
vn -0.3402 -0.8255 -0.4503
vn -0.9811 0.1929 0.0150
vn -0.4155 0.9096 -0.0008
vn -0.7668 0.3347 0.5477
vn -0.4454 -0.8951 0.0209
vn -0.2755 0.9613 0.0062
vn -0.1725 0.9688 0.1779
vn -0.7020 0.7120 0.0153
vn -0.4208 0.7118 -0.5623
vn -0.7986 0.4354 -0.4155
vn -0.9051 0.4249 0.0127
vn -0.7746 0.4471 0.4474
vn -0.3979 0.7013 0.5914
vn 0.0000 0.9779 0.2091
vn 0.0000 0.9795 -0.2014
vn 0.4208 0.7118 -0.5623
vn 0.7020 0.7120 0.0153
vn 0.7986 0.4354 -0.4155
vn 0.9051 0.4249 0.0127
vn 0.7746 0.4471 0.4474
vn 0.3979 0.7013 0.5914
vn -0.2761 0.4788 0.8333
vn 0.2761 0.4788 0.8333
vn -0.2918 0.4952 -0.8183
vn 0.2918 0.4952 -0.8183
vn 0.3446 0.9383 -0.0282
vn -0.8656 -0.3482 -0.3598
vn -0.6836 -0.2465 -0.6869
vn -0.5983 -0.6355 -0.4881
vn -0.6655 -0.7463 0.0101
vn 0.0000 -0.9373 -0.3486
vn 0.0000 -0.9301 0.3671
vn -0.6226 -0.6209 0.4762
vn -0.8942 -0.3319 0.3004
vn -0.7819 -0.2864 0.5538
vn -0.5878 -0.5990 0.5437
vn 0.0000 -0.8302 0.5574
vn 0.0000 -0.9406 0.3395
vn 0.5878 -0.5990 0.5437
vn 0.6226 -0.6209 0.4762
vn 0.7819 -0.2864 0.5538
vn 0.6504 -0.6650 0.3670
vn 0.8005 -0.2552 0.5422
vn -0.6504 -0.6650 0.3670
vn -0.8005 -0.2552 0.5422
vn 0.0000 -0.0529 0.9986
vn 0.0428 -0.0493 0.9978
vn -0.0428 -0.0493 0.9978
vn 0.1176 -0.1160 0.9862
vn -0.1176 -0.1160 0.9862
vn 0.0000 -0.2480 -0.9687
vn -0.4025 -0.5442 -0.7361
vn 0.4025 -0.5442 -0.7361
vn 0.5983 -0.6355 -0.4881
vn 0.6836 -0.2465 -0.6869
vn 0.8656 -0.3482 -0.3598
vn 0.6655 -0.7463 0.0101
vn 0.8942 -0.3319 0.3004
vn -0.9021 0.4315 0.0000
vn 0.0000 1.0000 0.0000
vn -0.6698 0.3204 -0.6698
vn 0.0000 0.4315 0.9021
vn 0.9021 0.4315 0.0000
vn 0.6698 0.3204 -0.6698
vn -0.9048 0.2575 0.3390
vn -0.0065 0.5881 0.8088
vn -0.6652 0.7329 -0.1421
vn -0.0117 -0.4758 0.8795
vn 0.8992 0.2500 0.3590
vn 0.6743 0.7274 -0.1273
vn -0.9048 0.2575 -0.3390
vn -0.6652 0.7329 0.1421
vn -0.0065 0.5881 -0.8088
vn -0.0117 -0.4758 -0.8795
vn 0.8992 0.2500 -0.3590
vn 0.6743 0.7274 0.1273
vn 0.7214 0.1889 -0.6663
vn 0.2678 0.7425 -0.6140
vn 0.8213 0.4377 0.3657
vn 0.7152 -0.6222 0.3184
vn -0.0125 0.1889 0.9819
vn -0.2771 0.7425 0.6098
vn -0.7214 0.1889 -0.6663
vn -0.8213 0.4377 0.3657
vn -0.2678 0.7425 -0.6140
vn -0.7152 -0.6222 0.3184
vn 0.0125 0.1889 0.9819
vn 0.2771 0.7425 0.6098
vn 0.7214 0.1889 0.6663
vn 0.8213 0.4377 -0.3657
vn 0.2678 0.7425 0.6140
vn 0.7152 -0.6222 -0.3184
vn -0.0125 0.1889 -0.9819
vn -0.2771 0.7425 -0.6098
vn -0.7214 0.1889 0.6663
vn -0.2678 0.7425 0.6140
vn -0.8213 0.4377 -0.3657
vn -0.7152 -0.6222 -0.3184
vn 0.0125 0.1889 -0.9819
vn 0.2771 0.7425 -0.6098
usemtl mat_itemTogezo_mat
s 1
f 1/1/1 2/2/2 3/3/3
f 1/1/1 4/4/4 2/2/2
f 4/4/4 1/1/1 80/5/5
f 81/6/6 4/4/4 80/5/5
f 81/6/6 37/7/7 4/4/4
f 26/8/8 37/7/7 81/6/6
f 26/8/8 35/9/9 37/7/7
f 26/8/8 27/10/10 35/9/9
f 22/11/11 27/10/10 26/8/8
f 23/12/12 22/11/11 26/8/8
f 22/11/11 23/12/12 24/13/13
f 24/13/13 34/14/14 22/11/11
f 32/15/15 34/14/14 24/13/13
f 32/15/15 33/16/16 34/14/14
f 78/17/17 33/16/16 32/15/15
f 33/16/16 78/17/17 76/18/18
f 38/19/19 33/16/16 76/18/18
f 38/19/19 76/18/18 20/20/20
f 38/19/19 20/20/20 37/7/7
f 35/9/9 38/19/19 37/7/7
f 33/16/16 38/19/19 35/9/9
f 34/14/14 33/16/16 35/9/9
f 22/11/11 34/14/14 35/9/9
f 27/10/10 22/11/11 35/9/9
f 2/2/2 4/4/4 5/21/21
f 2/2/2 5/21/21 7/22/22
f 7/22/22 6/23/23 2/2/2
f 7/22/22 18/24/24 6/23/23
f 20/20/20 18/24/24 7/22/22
f 8/25/25 20/20/20 7/22/22
f 7/22/22 5/21/21 8/25/25
f 5/21/21 20/20/20 8/25/25
f 20/20/20 5/21/21 37/7/7
f 37/7/7 5/21/21 4/4/4
f 3/3/3 2/2/2 6/23/23
f 18/24/24 19/26/26 6/23/23
f 18/24/24 76/18/18 19/26/26
f 20/20/20 76/18/18 18/24/24
f 19/26/26 76/18/18 77/27/27
f 78/17/17 77/27/27 76/18/18
f 9/28/28 10/29/29 11/30/30
f 9/28/28 11/30/30 12/31/31
f 9/28/28 12/31/31 13/32/32
f 9/28/28 13/32/32 14/33/33
f 74/34/34 9/28/28 14/33/33
f 9/28/28 74/34/34 73/35/35
f 10/29/29 9/28/28 73/35/35
f 30/36/36 10/29/29 73/35/35
f 30/36/36 73/35/35 28/37/37
f 28/37/37 29/38/38 30/36/36
f 28/37/37 31/39/39 29/38/38
f 28/37/37 36/40/40 31/39/39
f 28/37/37 16/41/41 36/40/40
f 74/34/34 16/41/41 28/37/37
f 74/34/34 14/33/33 16/41/41
f 17/42/42 16/41/41 14/33/33
f 15/43/43 16/41/41 17/42/42
f 16/41/41 15/43/43 36/40/40
f 14/33/33 13/32/32 17/42/42
f 21/44/44 11/30/30 10/29/29
f 79/45/45 21/44/44 10/29/29
f 79/45/45 10/29/29 30/36/36
f 79/45/45 30/36/36 29/38/38
f 25/46/46 24/13/13 23/12/12
f 23/12/12 80/5/5 25/46/46
f 23/12/12 81/6/6 80/5/5
f 26/8/8 81/6/6 23/12/12
f 39/47/47 40/48/48 41/49/49
f 41/49/49 42/50/50 39/47/47
f 42/50/50 41/49/49 43/51/51
f 42/50/50 43/51/51 65/52/52
f 42/50/50 65/52/52 45/53/53
f 47/54/54 42/50/50 45/53/53
f 45/53/53 53/55/55 47/54/54
f 44/56/56 53/55/55 45/53/53
f 44/56/56 45/53/53 46/57/57
f 46/57/57 50/58/58 44/56/56
f 46/57/57 49/59/59 50/58/58
f 48/60/60 49/59/59 46/57/57
f 49/59/59 48/60/60 69/61/61
f 69/61/61 51/62/62 49/59/59
f 71/63/63 51/62/62 69/61/61
f 49/59/59 51/62/62 50/58/58
f 44/56/56 50/58/58 52/64/64
f 52/64/64 53/55/55 44/56/56
f 72/65/65 53/55/55 52/64/64
f 54/66/66 55/67/67 56/68/68
f 70/69/69 55/67/67 54/66/66
f 54/66/66 56/68/68 75/70/70
f 57/71/71 58/72/71 59/73/71
f 58/72/71 60/74/71 59/73/71
f 40/48/48 61/75/72 41/49/49
f 43/51/51 41/49/49 61/75/72
f 64/76/73 43/51/51 61/75/72
f 64/76/73 63/77/74 43/51/51
f 62/78/75 63/77/74 64/76/73
f 63/77/74 62/78/75 67/79/76
f 63/77/74 67/79/76 66/80/77
f 66/80/77 43/51/51 63/77/74
f 65/52/52 43/51/51 66/80/77
f 65/52/52 66/80/77 48/60/60
f 48/60/60 46/57/57 65/52/52
f 46/57/57 45/53/53 65/52/52
f 67/79/76 68/81/78 66/80/77
f 66/80/77 68/81/78 48/60/60
f 69/61/61 48/60/60 68/81/78
f 47/54/54 39/47/47 42/50/50
f 73/35/35 74/34/34 28/37/37
f 82/82/79 83/83/80 84/84/81
f 85/85/82 83/83/80 82/82/79
f 86/86/83 83/83/80 85/85/82
f 87/87/84 83/83/80 86/86/83
f 88/88/85 89/89/86 90/90/87
f 91/91/88 89/89/86 88/88/85
f 92/92/89 89/89/86 91/91/88
f 93/93/90 89/89/86 92/92/89
f 94/94/91 95/95/92 96/96/93
f 97/97/94 94/94/91 96/96/93
f 98/98/95 97/97/94 96/96/93
f 99/99/96 98/98/95 96/96/93
f 100/100/97 101/101/98 102/102/99
f 103/103/100 100/100/97 102/102/99
f 104/104/101 103/103/100 102/102/99
f 105/105/102 104/104/101 102/102/99
f 106/106/103 107/107/104 108/108/105
f 109/109/106 107/107/104 106/106/103
f 110/110/107 107/107/104 109/109/106
f 111/111/108 107/107/104 110/110/107
f 112/112/109 113/113/110 114/114/111
f 115/115/112 113/113/110 112/112/109
f 116/116/113 113/113/110 115/115/112
f 117/117/114 113/113/110 116/116/113
f 118/118/115 119/119/116 120/120/117
f 121/121/118 118/118/115 120/120/117
f 122/122/119 121/121/118 120/120/117
f 123/123/120 122/122/119 120/120/117
